<svg width="25" height="8" viewBox="0 0 25 8" fill="none" xmlns="http://www.w3.org/2000/svg">
<path d="M1.12195 3.5C0.845806 3.5 0.621948 3.72386 0.621948 4C0.621948 4.27614 0.845806 4.5 1.12195 4.5L1.12195 3.5ZM24.0121 4.35355C24.2073 4.15829 24.2073 3.84171 24.0121 3.64644L20.8301 0.464464C20.6348 0.269202 20.3183 0.269202 20.123 0.464464C19.9277 0.659727 19.9277 0.976309 20.123 1.17157L22.9514 4L20.123 6.82843C19.9277 7.02369 19.9277 7.34027 20.123 7.53553C20.3183 7.73079 20.6348 7.73079 20.8301 7.53553L24.0121 4.35355ZM1.12195 4.5L23.6585 4.5L23.6585 3.5L1.12195 3.5L1.12195 4.5Z" fill="white"/>
</svg>
